G-Force (2009) (MPEG-4)(IPONE)(Dutch) Lions-Team 




 

Vanaf 24 november in de videotheek

De Amerikaanse overheid heeft besloten om dieren te trainen om in de spionage te werken. Het lot van de wereld komt in de handen terecht van twee cavia's, Darwin en Juarez, wanneer zij op pad worden gestuurd om een plan te stoppen van een gestoorde miljardair. Hierbij worden ze bijgestaan door de cavia Blaster, de hamster Bucky, de vlieg Mooch en computerspecialist Speckles, een mol.





English

The story is about a team of trained secret agent guinea pigs that takes on a mission for the US government. A specially trained squad of guinea pigs is dispatched to stop a diabolical billionaire, who plans to taking over the world with household appliances







Moviemeter info:


Spotinformatie 
Categorie : Beeld 
Formaat : MPEG-4
Bron : Retail

Format                           : MPEG-4
Format profile                   : Base Media
Codec ID                         : isom
File size                        : 987 MiB
Duration                         : 1h 24mn
Overall bit rate                 : 1 630 Kbps


Video
ID                               : 1
Format                           : MPEG-4 Visual
Format profile                   : Simple@L1
Format settings, BVOP            : No
Format settings, QPel            : No
Format settings, GMC             : No warppoints
Format settings, Matrix          : Default (H.263)
Codec ID                         : 20
Duration                         : 1h 24mn
Bit rate mode                    : Variable
Bit rate                         : 1 498 Kbps
Width                            : 720 pixels
Height                           : 406 pixels
Display aspect ratio             : 16/9
Frame rate mode                  : Constant
Frame rate                       : 25.000 fps
Resolution                       : 24 bits
Colorimetry                      : 4:2:0
Scan type                        : Progressive
Bits/(Pixel*Frame)               : 0.205
Stream size                      : 907 MiB (92%)
Writing library                  : Lavc51.40.4


Audio
ID                               : 2
Format                           : AAC
Format/Info                      : Advanced Audio Codec
Format version                   : Version 4
Format profile                   : LC
Format settings, SBR             : No
Codec ID                         : 40
Duration                         : 1h 24mn
Bit rate mode                    : Variable
Bit rate                         : 128 Kbps
Channel(s)                       : 2 channels
Channel positions                : L R
Sampling rate                    : 48.0 KHz
Resolution                       : 16 bits
Stream size                      : 77.5 MiB (8%)



Genre : Actie
Avontuur

Weblink : http://moviemeter.nl/film/54989
Weblink : http://www.imdb.com/title/tt0436339

***************************************** 


Brought to you by 

2Lions Team
   
http://www.2lions.ons-forum.nl

2Lions-Team for all your Dutch MOVIES and more 

*****************************************

DON T HIT AND RUN Niet gelijk afhaken als de film binnen is blijf seeden.